<svg width="190" height="117" viewBox="0 0 190 117" fill="none" xmlns="http://www.w3.org/2000/svg">
<path d="M36.1 117H154.1C173.6 117 189.5 101.2 189.5 81.8001C189.5 70.7001 184.4 60.5001 175.6 53.8001C174.6 53.1001 174 52.1001 173.6 50.9001C168.5 33.3001 152.1 21.0001 133.8 21.0001C130.4 21.0001 127.1 21.4001 123.8 22.2001C121.5 22.8001 119.2 21.9001 117.9 20.0001C109.3 7.6001 95.2 0.100098 80.2 0.100098C68.7 0.100098 57.8 4.4001 49.3 12.1001C40.9 19.8001 35.7 30.2001 34.6 41.5001C34.4 43.4001 33.2 45.2001 31.4 46.0001C30.8 46.3001 30.3 46.5001 29.8 46.8001C29.3 47.1001 28.8 47.2001 28.3 47.4001C20.6 49.1001 13.6 53.5001 8.50001 59.6001C3.30001 65.9001 0.600006 73.6001 0.600006 81.8001C0.700006 101.2 16.6 117 36.1 117Z" fill="#44C2E4"/>
</svg>
