<svg width="190" height="169" viewBox="0 0 190 169" fill="none" xmlns="http://www.w3.org/2000/svg">
<path d="M36.1 117.4H154.1C173.6 117.4 189.5 101.6 189.5 82.2C189.5 71.1 184.4 60.9 175.6 54.2C174.6 53.5 174 52.5 173.6 51.3C168.5 33.7 152.1 21.4 133.8 21.4C130.4 21.4 127.1 21.8 123.8 22.6C121.5 23.2 119.2 22.3 117.9 20.4C109.3 7.99999 95.2 0.5 80.2 0.5C68.7 0.5 57.8 4.8 49.3 12.5C40.9 20.2 35.7 30.6 34.6 41.9C34.4 43.8 33.2 45.6 31.4 46.4C30.8 46.7 30.3 46.9 29.8 47.2C29.3 47.5 28.8 47.6 28.3 47.8C20.6 49.5 13.6 53.9 8.50001 60C3.30001 66.3 0.600006 74 0.600006 82.2C0.700006 101.6 16.6 117.4 36.1 117.4Z" fill="#44C2E4"/>
<path d="M42.3 135.3C39.4 136.2 37.7 139.3 38.6 142.3L45.3 164.2C46 166.6 48.2 168.1 50.6 168.1C51.1 168.1 51.7 168 52.2 167.9C55.1 167 56.8 163.9 55.9 160.9L49.2 139C48.4 136 45.3 134.4 42.3 135.3Z" fill="#44C2E4"/>
<path d="M89 135.3C86.1 136.2 84.4 139.3 85.3 142.3L92 164.2C92.7 166.6 94.9 168.1 97.3 168.1C97.8 168.1 98.4 168 98.9 167.9C101.8 167 103.5 163.9 102.6 160.9L95.9 139C95 136 91.9 134.4 89 135.3Z" fill="#44C2E4"/>
<path d="M135.6 135.3C132.7 136.2 131 139.3 131.9 142.3L138.6 164.2C139.3 166.6 141.5 168.1 143.9 168.1C144.4 168.1 145 168 145.5 167.9C148.4 167 150.1 163.9 149.2 160.9L142.5 139C141.7 136 138.5 134.4 135.6 135.3Z" fill="#44C2E4"/>
</svg>
