<svg width="211" height="211" viewBox="0 0 211 211" fill="none" xmlns="http://www.w3.org/2000/svg">
<path d="M115.106 157.049C143.473 151.613 162.063 124.21 156.627 95.8424C151.191 67.4749 123.788 48.8854 95.4203 54.3214C67.0528 59.7575 48.4633 87.1607 53.8993 115.528C59.3354 143.896 86.7385 162.485 115.106 157.049Z" fill="#E6C705"/>
<path d="M99.7 29.7C99.7 32.8 102.2 35.3 105.3 35.3C108.4 35.3 110.9 32.8 110.9 29.7V6.09998C110.9 2.99998 108.4 0.5 105.3 0.5C102.2 0.5 99.7 2.99998 99.7 6.09998V29.7Z" fill="#E6C705"/>
<path d="M99.7 181.7V205.3C99.7 208.4 102.2 210.9 105.3 210.9C108.4 210.9 110.9 208.4 110.9 205.3V181.7C110.9 178.6 108.4 176.1 105.3 176.1C102.2 176.2 99.7 178.7 99.7 181.7Z" fill="#E6C705"/>
<path d="M67.3 45.4001C68.2 45.4001 69.1999 45.2001 70.0999 44.7001C72.7999 43.2001 73.6999 39.8001 72.0999 37.1001L60.3 16.7001C58.8 14.0001 55.4 13.1001 52.7 14.7001C50 16.2001 49.1 19.6001 50.7 22.3001L62.5 42.7001C63.5 44.4001 65.3 45.4001 67.3 45.4001Z" fill="#E6C705"/>
<path d="M140.5 166.7C137.8 168.2 136.9 171.6 138.5 174.3L150.3 194.7C151.3 196.5 153.2 197.5 155.1 197.5C156 197.5 157 197.3 157.9 196.8C160.6 195.3 161.5 191.9 159.9 189.2L148.1 168.8C146.6 166.1 143.2 165.2 140.5 166.7Z" fill="#E6C705"/>
<path d="M14.2 53.1001C12.7 55.8001 13.6 59.2001 16.2 60.7001L36.6 72.5001C37.5 73.0001 38.4 73.2001 39.4 73.2001C41.3 73.2001 43.2 72.2001 44.2 70.4001C45.7 67.7001 44.8 64.3001 42.2 62.8001L21.8 51.0001C19.1 49.5001 15.7 50.5001 14.2 53.1001Z" fill="#E6C705"/>
<path d="M194.3 150.7L173.9 138.9C171.2 137.4 167.8 138.3 166.3 140.9C164.8 143.6 165.7 147 168.3 148.5L188.7 160.3C189.6 160.8 190.5 161 191.5 161C193.4 161 195.3 160 196.3 158.2C197.9 155.6 197 152.2 194.3 150.7Z" fill="#E6C705"/>
<path d="M34.8 105.7C34.8 102.6 32.3 100.1 29.2 100.1H5.59998C2.49998 100.1 0 102.6 0 105.7C0 108.8 2.49998 111.3 5.59998 111.3H29.2C32.3 111.3 34.8 108.8 34.8 105.7Z" fill="#E6C705"/>
<path d="M204.9 100.1H181.3C178.2 100.1 175.7 102.6 175.7 105.7C175.7 108.8 178.2 111.3 181.3 111.3H204.9C208 111.3 210.5 108.8 210.5 105.7C210.4 102.6 208 100.1 204.9 100.1Z" fill="#E6C705"/>
<path d="M36.5999 138.9L16.2 150.7C13.5 152.2 12.6 155.6 14.2 158.3C15.2 160.1 17.1 161.1 19 161.1C19.9 161.1 20.9 160.9 21.8 160.4L42.2 148.6C44.9 147.1 45.8 143.7 44.2 141C42.7 138.3 39.2999 137.4 36.5999 138.9Z" fill="#E6C705"/>
<path d="M188.7 51.1L168.3 62.9001C165.6 64.4001 164.7 67.8001 166.3 70.5001C167.3 72.3001 169.2 73.3 171.1 73.3C172 73.3 173 73.1 173.9 72.6L194.3 60.8C197 59.3 197.9 55.9001 196.3 53.2001C194.8 50.5001 191.4 49.5 188.7 51.1Z" fill="#E6C705"/>
<path d="M62.4 168.8L50.6 189.2C49.1 191.9 50 195.3 52.6 196.8C53.5 197.3 54.4 197.5 55.4 197.5C57.3 197.5 59.2 196.5 60.2 194.7L72 174.3C73.5 171.6 72.6 168.2 70 166.7C67.4 165.2 64 166.1 62.4 168.8Z" fill="#E6C705"/>
<path d="M140.5 44.7002C141.4 45.2002 142.3 45.4002 143.3 45.4002C145.2 45.4002 147.1 44.4001 148.1 42.6001L159.9 22.2002C161.4 19.5002 160.5 16.1001 157.9 14.6001C155.2 13.1001 151.8 14.0001 150.3 16.6001L138.5 37.0001C136.9 39.8001 137.8 43.2002 140.5 44.7002Z" fill="#E6C705"/>
</svg>
