<svg width="232" height="161" viewBox="0 0 232 161" fill="none" xmlns="http://www.w3.org/2000/svg">
<path d="M217.4 97.8001C216.4 97.1001 215.8 96.1001 215.4 94.9001C210.3 77.3001 193.9 65.0001 175.6 65.0001C172.2 65.0001 168.9 65.4001 165.6 66.2001C163.3 66.8001 161 65.9001 159.7 64.0001C151.1 51.6001 137 44.1001 122 44.1001C110.5 44.1001 99.6 48.4001 91.1 56.1001C82.7 63.8001 77.5 74.2001 76.4 85.5001C76.2 87.4001 75 89.2001 73.2 90.0001C72.6 90.3001 72.1 90.5001 71.5 90.8001C71 91.1001 70.5 91.2001 70 91.4001C62.3 93.1001 55.3 97.5001 50.2 103.6C45 109.9 42.3 117.6 42.3 125.8C42.3 145.2 58.2 161 77.7 161H195.7C215.2 161 231.1 145.2 231.1 125.8C231.3 114.7 226.2 104.5 217.4 97.8001Z" fill="#44C2E4"/>
<path d="M42.6 70.2001C42.6 77.2001 45.2 83.7001 49.8 88.8001C54.5 85.2001 60 82.6001 65.7 81.0001C67.7 68.3001 74 56.6001 83.5 47.9001C84 47.5001 84.4 47.1001 84.9 46.7001C80.6 44.0001 75.6 42.6001 70.3 42.6001C55 42.5001 42.6 54.9001 42.6 70.2001Z" fill="#E6C705"/>
<path d="M70.3 27.6C73.4 27.6 75.9 25.1 75.9 22V6.40005C75.9 3.30005 73.4 0.800049 70.3 0.800049C67.2 0.800049 64.7 3.30005 64.7 6.40005V22.1C64.7 25.1 67.2 27.6 70.3 27.6Z" fill="#E6C705"/>
<path d="M41.4 31.3001C42.4 33.1001 44.3 34.1001 46.2 34.1001C47.1 34.1001 48.1 33.9001 49 33.4001C51.7 31.9001 52.6 28.5001 51 25.8001L43.2 12.2001C41.7 9.5001 38.3 8.6001 35.6 10.2001C32.9 11.7001 32 15.1001 33.6 17.8001L41.4 31.3001Z" fill="#E6C705"/>
<path d="M12.3 43.1L25.9 50.9C26.8 51.4 27.7 51.6 28.7 51.6C30.6 51.6 32.5 50.6 33.5 48.8C35 46.1 34.1 42.7 31.5 41.2L17.9 33.4C15.2 31.9 11.8 32.8 10.3 35.4C8.69999 38.2 9.59999 41.6 12.3 43.1Z" fill="#E6C705"/>
<path d="M6.5 75.8001H22.2C25.3 75.8001 27.8 73.3001 27.8 70.2001C27.8 67.1001 25.3 64.6001 22.2 64.6001H6.5C3.4 64.6001 0.899994 67.1001 0.899994 70.2001C0.899994 73.3001 3.4 75.8001 6.5 75.8001Z" fill="#E6C705"/>
<path d="M33.4 91.5C31.9 88.8 28.5 87.9 25.8 89.5L12.2 97.3C9.50001 98.8 8.60001 102.2 10.2 104.9C11.2 106.7 13.1 107.7 15 107.7C15.9 107.7 16.9 107.5 17.8 107L31.4 99.2C34.1 97.6 35 94.2 33.4 91.5Z" fill="#E6C705"/>
<path d="M91.6 33.3C92.5 33.8 93.4 34 94.4 34C96.3 34 98.2 33 99.2 31.2L107 17.6C108.5 14.9 107.6 11.5 105 10C102.3 8.50002 98.9 9.40002 97.4 12L89.6 25.6C88 28.4 88.9 31.8 91.6 33.3Z" fill="#E6C705"/>
</svg>
