<svg width="131" height="106" viewBox="0 0 131 106" fill="none" xmlns="http://www.w3.org/2000/svg">
<path d="M71.3855 22.8076C65.0082 11.8465 80.9516 -1.10737 95.8985 10.6508C110.646 22.4091 96.6956 46.7226 81.5495 46.7226C66.204 46.7226 33.1216 46.7226 33.1216 46.7226" stroke="#44C2E4" stroke-width="10" stroke-miterlimit="10" stroke-linecap="round" stroke-linejoin="round"/>
<path d="M5 66.0646C5 66.0646 50.4386 66.0646 58.2109 66.0646C65.9833 66.0646 84.9161 67.4597 84.9161 82.8051C84.9161 98.1506 65.9833 109.51 56.8159 92.5704" stroke="#44C2E4" stroke-width="10" stroke-miterlimit="10" stroke-linecap="round" stroke-linejoin="round"/>
<path d="M82.6848 58.673C82.6848 58.673 98.0303 58.673 103.61 58.673C109.191 58.673 121.148 59.4702 124.337 68.6376C127.326 77.805 121.547 82.9867 116.564 84.3817C111.781 85.7768 102.215 84.5811 101.219 77.2073" stroke="#44C2E4" stroke-width="10" stroke-miterlimit="10" stroke-linecap="round" stroke-linejoin="round"/>
</svg>
